<svg width="16" height="19" viewBox="0 0 16 19" fill="none" xmlns="http://www.w3.org/2000/svg">
<path fill-rule="evenodd" clip-rule="evenodd" d="M3.125 0C2.2962 0 1.50134 0.32924 0.915291 0.915291C0.32924 1.50134 0 2.2962 0 3.125V15.625C0 16.4538 0.32924 17.2487 0.915291 17.8347C1.50134 18.4208 2.2962 18.75 3.125 18.75H12.5C13.3288 18.75 14.1237 18.4208 14.7097 17.8347C15.2958 17.2487 15.625 16.4538 15.625 15.625V6.25C15.625 6.04282 15.5426 5.84414 15.3961 5.69766L9.92734 0.228906C9.78087 0.0823835 9.58218 4.4248e-05 9.375 0H3.125ZM1.5625 3.125C1.5625 2.7106 1.72712 2.31317 2.02015 2.02015C2.31317 1.72712 2.7106 1.5625 3.125 1.5625H8.59375V6.25C8.59375 6.4572 8.67606 6.65591 8.82257 6.80243C8.96908 6.94894 9.1678 7.03125 9.375 7.03125H14.0625V15.625C14.0625 16.0394 13.8979 16.4368 13.6049 16.7299C13.3118 17.0229 12.9144 17.1875 12.5 17.1875H3.125C2.7106 17.1875 2.31317 17.0229 2.02015 16.7299C1.72712 16.4368 1.5625 16.0394 1.5625 15.625V3.125ZM12.9578 5.46875L10.1562 2.66719V5.46875H12.9578Z" fill="black"/>
<path d="M8.37743 8.44453C8.30448 8.36819 8.21682 8.30743 8.11974 8.26592C8.02266 8.22441 7.91817 8.203 7.81258 8.203C7.707 8.203 7.60251 8.22441 7.50542 8.26592C7.40834 8.30743 7.32068 8.36819 7.24774 8.44453L4.90399 10.8945C4.76081 11.0443 4.68301 11.2449 4.6877 11.452C4.69239 11.6592 4.77918 11.856 4.92899 11.9992C5.07879 12.1424 5.27934 12.2202 5.48651 12.2155C5.69368 12.2108 5.8905 12.124 6.03368 11.9742L7.03133 10.9312V14.8437C7.03133 15.0509 7.11364 15.2497 7.26016 15.3962C7.40667 15.5427 7.60538 15.625 7.81258 15.625C8.01978 15.625 8.2185 15.5427 8.36501 15.3962C8.51152 15.2497 8.59383 15.0509 8.59383 14.8437V10.9312L9.59149 11.9742C9.66238 12.0484 9.74719 12.1079 9.84107 12.1493C9.93496 12.1907 10.0361 12.2132 10.1387 12.2155C10.2412 12.2178 10.3433 12.1999 10.4389 12.1628C10.5346 12.1257 10.622 12.0701 10.6962 11.9992C10.7704 11.9283 10.8298 11.8435 10.8712 11.7496C10.9126 11.6557 10.9351 11.5546 10.9375 11.452C10.9398 11.3495 10.9219 11.2474 10.8848 11.1518C10.8477 11.0561 10.7921 10.9687 10.7212 10.8945L8.37743 8.44453Z" fill="black"/>
</svg>
